<svg width="16" height="16" viewBox="0 0 16 16" fill="none" xmlns="http://www.w3.org/2000/svg">
<path d="M7.99976 16C3.5884 16 0 12.4121 0 8.0017C0 3.58937 3.5884 0 7.99976 0C12.4116 0 16.0005 3.58937 16.0005 8.0017C16 12.4121 12.4111 16 7.99976 16ZM7.99976 0.486959C3.8572 0.486959 0.486959 3.85817 0.486959 8.0017C0.486959 12.1438 3.8572 15.5135 7.99976 15.5135C12.1428 15.5135 15.5135 12.1438 15.5135 8.0017C15.513 3.85817 12.1428 0.486959 7.99976 0.486959Z" fill="#C4C4C4"/>
<path d="M11.0983 8.24518H7.99977C7.86536 8.24518 7.75629 8.1361 7.75629 8.0017V3.33274C7.75629 3.19834 7.86536 3.08926 7.99977 3.08926C8.13417 3.08926 8.24324 3.19834 8.24324 3.33274V7.75822H11.0983C11.2327 7.75822 11.3418 7.8673 11.3418 8.0017C11.3418 8.1361 11.2327 8.24518 11.0983 8.24518Z" fill="#C4C4C4"/>
</svg>
