<svg width="16" height="16" viewBox="0 0 16 16" fill="none" xmlns="http://www.w3.org/2000/svg">
<g clip-path="url(#clip0)">
<path d="M4.10059 6.77612C4.18286 6.77612 4.26343 6.74267 4.32153 6.68457C4.37964 6.62634 4.41308 6.54578 4.41308 6.46362C4.41308 6.38135 4.37964 6.30078 4.32153 6.24268C4.26343 6.18457 4.18286 6.15112 4.10059 6.15112C4.01807 6.15112 3.93787 6.18457 3.87964 6.24268C3.82153 6.30078 3.78809 6.38135 3.78809 6.46362C3.78809 6.54578 3.82153 6.62634 3.87964 6.68457C3.93787 6.74267 4.01843 6.77612 4.10059 6.77612Z" fill="#C4C4C4"/>
<path d="M8.57715 6.3623C8.5188 6.3042 8.43848 6.27075 8.35596 6.27075C8.2738 6.27075 8.19312 6.3042 8.13501 6.3623C8.0769 6.42041 8.04346 6.5011 8.04346 6.58325C8.04346 6.6654 8.0769 6.74609 8.13501 6.8042C8.19312 6.8623 8.2738 6.89575 8.35596 6.89575C8.43848 6.89575 8.5188 6.8623 8.57715 6.8042C8.63525 6.74609 8.66846 6.66577 8.66846 6.58325C8.66846 6.5011 8.63525 6.42041 8.57715 6.3623Z" fill="#C4C4C4"/>
<path d="M9.44995 5.802C9.53223 5.802 9.61279 5.76855 9.6709 5.71045C9.729 5.65234 9.76221 5.57165 9.76221 5.4895C9.76221 5.40735 9.729 5.32666 9.6709 5.26855C9.61279 5.21045 9.53223 5.177 9.44995 5.177C9.36755 5.177 9.28686 5.21045 9.22876 5.26855C9.17065 5.32666 9.13721 5.40735 9.13721 5.4895C9.13721 5.57165 9.17065 5.65234 9.22876 5.71045C9.28686 5.76855 9.36755 5.802 9.44995 5.802Z" fill="#C4C4C4"/>
<path d="M15.0625 7.68736H14.1905L15.7254 6.15245C15.9024 5.97533 16 5.73986 16 5.48949C16 5.23913 15.9024 5.00365 15.7254 4.82665L14.3332 3.43444C14.2113 3.31249 14.0134 3.31249 13.8913 3.43444C13.7143 3.61157 13.4789 3.7091 13.2285 3.7091C12.978 3.7091 12.7427 3.61157 12.5655 3.43444C12.3884 3.25744 12.291 3.02197 12.291 2.7716C12.291 2.52111 12.3885 2.28576 12.5655 2.10864C12.6241 2.05005 12.6571 1.97058 12.6571 1.88769C12.6571 1.80481 12.6241 1.72534 12.5655 1.66674L11.1734 0.274658C10.9963 0.097534 10.761 0 10.5105 0C10.2601 0 10.0246 0.097534 9.84764 0.274658L4.68627 5.4359C4.5642 5.55785 4.5642 5.75573 4.68627 5.8778C4.80834 5.99987 5.00622 5.99987 5.12829 5.8778L10.2895 0.716551C10.3486 0.657469 10.427 0.624999 10.5105 0.624999C10.594 0.624999 10.6725 0.657469 10.7314 0.716551L11.9247 1.90966C11.7563 2.16308 11.666 2.46044 11.666 2.7716C11.666 3.18896 11.8285 3.58129 12.1236 3.87646C12.4188 4.1715 12.8111 4.3341 13.2285 4.3341C13.5396 4.3341 13.8369 4.24377 14.0904 4.07543L15.2835 5.26854C15.4054 5.39037 15.4054 5.58861 15.2835 5.71044L13.3066 7.68736H11.9366L12.9634 6.66063C13.0853 6.53856 13.0853 6.34069 12.9634 6.21874L9.78135 3.03674C9.65928 2.91467 9.46141 2.91467 9.33934 3.03674L4.68871 7.68736H0.937498C0.420531 7.68736 0 8.10789 0 8.62486V10.5936C0 10.7661 0.139892 10.9061 0.312499 10.9061C0.829466 10.9061 1.25 11.3266 1.25 11.8436C1.25 12.3604 0.829466 12.7811 0.312499 12.7811C0.139892 12.7811 0 12.921 0 13.0936V15.0623C0 15.5792 0.420531 15.9998 0.937498 15.9998H15.0625C15.5794 15.9998 16 15.5792 16 15.0623V13.0936C16 12.921 15.8601 12.7811 15.6875 12.7811C15.1705 12.7811 14.75 12.3604 14.75 11.8436C14.75 11.3266 15.1705 10.9061 15.6875 10.9061C15.8601 10.9061 16 10.7661 16 10.5936V8.62486C16 8.10789 15.5794 7.68736 15.0625 7.68736ZM9.56028 3.69958L12.3004 6.43968L11.0527 7.68736H9.81529L10.7314 6.77111C10.8535 6.64916 10.8535 6.45128 10.7314 6.32921C10.6095 6.20714 10.4116 6.20714 10.2895 6.32921L8.93138 7.68724H5.57262L9.56028 3.69958ZM15.375 10.3125C14.6627 10.4576 14.125 11.089 14.125 11.8436C14.125 12.5981 14.6627 13.2295 15.375 13.3747V15.0623C15.375 15.2346 15.2348 15.3748 15.0625 15.3748H0.937498C0.765135 15.3748 0.624999 15.2346 0.624999 15.0623V13.3747C1.33728 13.2295 1.875 12.5981 1.875 11.8436C1.875 11.089 1.33728 10.4577 0.624999 10.3125V8.62486C0.624999 8.4525 0.765135 8.31236 0.937498 8.31236H15.0625C15.2348 8.31236 15.375 8.4525 15.375 8.62486V10.3125Z" fill="#C4C4C4"/>
<path d="M6.67407 11.3146C6.73218 11.2563 6.76562 11.1758 6.76562 11.0936C6.76562 11.0114 6.73218 10.9308 6.67407 10.8727C6.61597 10.8146 6.53528 10.7811 6.45312 10.7811C6.37097 10.7811 6.29028 10.8146 6.23218 10.8727C6.17407 10.9308 6.14062 11.0114 6.14062 11.0936C6.14062 11.1758 6.17407 11.2563 6.23218 11.3146C6.29028 11.3727 6.37097 11.4061 6.45312 11.4061C6.53528 11.4061 6.61597 11.3727 6.67407 11.3146Z" fill="#C4C4C4"/>
<path d="M9.76782 11.3146C9.82593 11.2563 9.85937 11.1758 9.85937 11.0936C9.85937 11.0114 9.82593 10.9308 9.76782 10.8727C9.70972 10.8146 9.62903 10.7811 9.54687 10.7811C9.46472 10.7811 9.38403 10.8146 9.32593 10.8727C9.26782 10.9308 9.23438 11.0114 9.23438 11.0936C9.23438 11.1758 9.26782 11.2563 9.32593 11.3146C9.38403 11.3727 9.46472 11.4061 9.54687 11.4061C9.62903 11.4061 9.70972 11.3727 9.76782 11.3146Z" fill="#C4C4C4"/>
<path d="M8.22095 11.3146C8.27905 11.2563 8.3125 11.1758 8.3125 11.0936C8.3125 11.0114 8.27905 10.9308 8.22095 10.8727C8.16284 10.8146 8.08215 10.7811 8 10.7811C7.91785 10.7811 7.83716 10.8146 7.77905 10.8727C7.72095 10.9308 7.6875 11.0114 7.6875 11.0936C7.6875 11.1758 7.72095 11.2563 7.77905 11.3146C7.83716 11.3727 7.91785 11.4061 8 11.4061C8.08215 11.4061 8.16284 11.3727 8.22095 11.3146Z" fill="#C4C4C4"/>
<path d="M4.90625 11.4061C4.9884 11.4061 5.06909 11.3727 5.1272 11.3146C5.1853 11.2563 5.21875 11.1758 5.21875 11.0936C5.21875 11.0114 5.1853 10.9308 5.1272 10.8727C5.06909 10.8146 4.9884 10.7811 4.90625 10.7811C4.8241 10.7811 4.74341 10.8146 4.6853 10.8727C4.6272 10.9308 4.59375 11.0114 4.59375 11.0936C4.59375 11.1758 4.6272 11.2563 4.6853 11.3146C4.74341 11.3727 4.8241 11.4061 4.90625 11.4061Z" fill="#C4C4C4"/>
<path d="M11.3147 11.3146C11.3728 11.2563 11.4062 11.1758 11.4062 11.0936C11.4062 11.0114 11.3728 10.9308 11.3147 10.8727C11.2566 10.8146 11.1759 10.7811 11.0937 10.7811C11.0116 10.7811 10.9309 10.8146 10.8728 10.8727C10.8147 10.9308 10.7812 11.0114 10.7812 11.0936C10.7812 11.1758 10.8147 11.2563 10.8728 11.3146C10.9309 11.3727 11.0116 11.4061 11.0937 11.4061C11.1759 11.4061 11.2566 11.3727 11.3147 11.3146Z" fill="#C4C4C4"/>
<path d="M4.90625 12.9061H11.0937C11.2663 12.9061 11.4062 12.7661 11.4062 12.5936C11.4062 12.421 11.2663 12.2811 11.0937 12.2811H4.90625C4.73364 12.2811 4.59375 12.421 4.59375 12.5936C4.59375 12.7661 4.73364 12.9061 4.90625 12.9061Z" fill="#C4C4C4"/>
<path d="M6.04126 13.7811C5.95911 13.7811 5.87842 13.8145 5.82031 13.8727C5.76221 13.9308 5.72876 14.0113 5.72876 14.0936C5.72876 14.1758 5.76221 14.2563 5.82031 14.3145C5.87842 14.3726 5.95911 14.4061 6.04126 14.4061C6.12378 14.4061 6.2041 14.3726 6.26221 14.3145C6.32068 14.2563 6.35376 14.1758 6.35376 14.0936C6.35376 14.0113 6.32068 13.9308 6.26221 13.8727C6.2041 13.8145 6.12378 13.7811 6.04126 13.7811Z" fill="#C4C4C4"/>
<path d="M12.75 9.28113H3.25C3.07739 9.28113 2.9375 9.42102 2.9375 9.59363V14.0936C2.9375 14.2661 3.07739 14.4061 3.25 14.4061H4.55175C4.72436 14.4061 4.86425 14.2661 4.86425 14.0936C4.86425 13.921 4.72436 13.7811 4.55175 13.7811H3.5625V9.90613H12.4375V13.7811H7.36425C7.19164 13.7811 7.05175 13.921 7.05175 14.0936C7.05175 14.2661 7.19164 14.4061 7.36425 14.4061H12.75C12.9226 14.4061 13.0625 14.2661 13.0625 14.0936V9.59363C13.0625 9.42102 12.9226 9.28113 12.75 9.28113Z" fill="#C4C4C4"/>
</g>
<defs>
<clipPath id="clip0">
<rect width="16" height="16" fill="white"/>
</clipPath>
</defs>
</svg>
