<svg width="32" height="32" viewBox="0 0 32 32" fill="none" xmlns="http://www.w3.org/2000/svg">
<path d="M31.3054 14.5647C31.9353 13.9508 32.1576 13.0499 31.886 12.2124C31.6136 11.3749 30.9043 10.7771 30.0329 10.6502L22.2847 9.52439C21.9547 9.47633 21.6695 9.26937 21.5222 8.97013L18.0582 1.94986C17.6692 1.16108 16.8798 0.670887 16 0.670887C15.1209 0.670887 14.3315 1.16108 13.9425 1.94986L10.4779 8.97077C10.3305 9.27001 10.0447 9.47697 9.71472 9.52503L1.96654 10.6509C1.09573 10.7771 0.385762 11.3756 0.113436 12.2131C-0.15825 13.0505 0.0640964 13.9515 0.693972 14.5653L6.30006 20.0298C6.53907 20.263 6.64864 20.5988 6.59225 20.9269L5.2697 28.643C5.15244 29.3222 5.33058 29.9829 5.77014 30.5038C6.4532 31.3157 7.64567 31.563 8.59914 31.0619L15.5284 27.4185C15.818 27.2666 16.1826 27.2679 16.4716 27.4185L23.4015 31.0619C23.7386 31.2394 24.0981 31.3291 24.4691 31.3291C25.1464 31.3291 25.7884 31.028 26.2299 30.5038C26.6701 29.9829 26.8476 29.3209 26.7303 28.643L25.4072 20.9269C25.3508 20.5982 25.4603 20.263 25.6993 20.0298L31.3054 14.5647Z" fill="#887777"/>
</svg>
